<svg xmlns="http://www.w3.org/2000/svg" viewBox="0 0 1816 394" role="img" aria-label="Remedy508 logo">
  <title>Remedy508</title>
  <rect x="0" y="0" width="394" height="394" rx="72" ry="72" fill="#1F2937"/>
  <path d="M30 214V220H224V214Q224 183 252.0 172.0Q280 161 368 161Q447 161 471.0 177.0Q495 193 495 236Q495 281 471.0 297.0Q447 313 368 313Q298 313 265.5 304.5Q233 296 224 271H33L73 670H655V501H240L222 364H232Q246 401 300.5 430.5Q355 460 449 460Q695 460 695 238Q695 121 614.5 55.5Q534 -10 365.0 -10.0Q196 -10 113.0 43.5Q30 97 30 214Z" transform="translate(60.120000000000005,248) scale(0.13,-0.13)" fill="#FFFFFF"/>
  <path d="M367 680Q533 680 623.0 586.5Q713 493 713.0 335.0Q713 177 623.5 83.5Q534 -10 367.0 -10.0Q200 -10 110.0 83.5Q20 177 20.0 335.0Q20 493 110.0 586.5Q200 680 367 680ZM252.0 207.0Q282 173 367.0 173.0Q452 173 481.5 207.0Q511 241 511.0 335.0Q511 429 481.5 463.0Q452 497 367.0 497.0Q282 497 252.0 463.0Q222 429 222.0 335.0Q222 241 252.0 207.0Z" transform="translate(151.37,248) scale(0.13,-0.13)" fill="#FFFFFF"/>
  <path d="M348 -10Q191 -10 103.0 38.0Q15 86 15 185Q15 318 170 349V362Q37 387 37 503Q37 587 116.5 633.5Q196 680 347 680Q500 680 579.5 633.5Q659 587 659 503Q659 387 524 362V349Q596 336 637.5 298.5Q679 261 679 185Q679 86 591.0 38.0Q503 -10 348 -10ZM347 407Q422 407 447.0 417.5Q472 428 472 453Q472 481 447.5 490.5Q423 500 347 500Q273 500 249.0 490.5Q225 481 225 453Q225 428 250.0 417.5Q275 407 347 407ZM488 226Q488 258 460.5 269.0Q433 280 347.0 280.0Q261 280 233.5 269.0Q206 258 206 226Q206 195 235.0 182.5Q264 170 347.0 170.0Q430 170 459.0 182.5Q488 195 488 226Z" transform="translate(243.66000000000003,248) scale(0.13,-0.13)" fill="#FFFFFF"/>
  <circle cx="324" cy="324" r="64" fill="#10B981"/>
  <path d="M 290 327 L 314 348 L 358 304" stroke="#FFFFFF" stroke-width="15" stroke-linecap="round" stroke-linejoin="round" fill="none"/>
  <path d="M218 0H30V670H421Q553 670 622.0 617.0Q691 564 691 465Q691 384 647.5 338.0Q604 292 510 280V270Q558 258 581.5 235.0Q605 212 626 168L709 0H492L412 164Q394 202 371.5 215.0Q349 228 295 228H218ZM218 501V368H419Q462 368 478.0 381.0Q494 394 494 435Q494 474 477.5 487.5Q461 501 419 501Z" transform="translate(450,275) scale(0.22,-0.22)" fill="#1F2937"/>
  <path d="M311 -10Q175 -10 97.5 53.0Q20 116 20 252Q20 373 99.5 443.5Q179 514 307 514Q440 514 516.0 449.5Q592 385 592 265Q592 244 589 217H194Q196 172 219.5 155.5Q243 139 304 139Q359 139 379.5 149.0Q400 159 400 182V193H588V181Q588 96 512.5 43.0Q437 -10 311 -10ZM303 370Q251 370 227.0 357.0Q203 344 197 312H410Q405 344 380.5 357.0Q356 370 303 370Z" transform="translate(597.98,275) scale(0.22,-0.22)" fill="#1F2937"/>
  <path d="M218 0H30V504H206V351H216Q225 423 268.5 468.5Q312 514 400 514Q485 514 531.5 469.0Q578 424 586 351H596Q605 423 650.0 468.5Q695 514 786 514Q879 514 927.5 461.5Q976 409 976 323V0H788V254Q788 307 768.0 326.5Q748 346 690 346Q634 346 615.5 328.0Q597 310 597 260V0H409V254Q409 307 389.0 326.5Q369 346 311 346Q255 346 236.5 328.0Q218 310 218 260Z" transform="translate(724.62,275) scale(0.22,-0.22)" fill="#1F2937"/>
  <path d="M311 -10Q175 -10 97.5 53.0Q20 116 20 252Q20 373 99.5 443.5Q179 514 307 514Q440 514 516.0 449.5Q592 385 592 265Q592 244 589 217H194Q196 172 219.5 155.5Q243 139 304 139Q359 139 379.5 149.0Q400 159 400 182V193H588V181Q588 96 512.5 43.0Q437 -10 311 -10ZM303 370Q251 370 227.0 357.0Q203 344 197 312H410Q405 344 380.5 357.0Q356 370 303 370Z" transform="translate(937.06,275) scale(0.22,-0.22)" fill="#1F2937"/>
  <path d="M259 -10Q144 -10 82.0 59.5Q20 129 20 252Q20 376 80.5 445.0Q141 514 251 514Q416 514 441 374H451V670H639V0H463V136H453Q441 61 394.0 25.5Q347 -10 259 -10ZM327 162Q394 162 422.5 180.5Q451 199 451 251V258Q451 309 422.5 326.0Q394 343 327 343Q262 343 236.0 322.5Q210 302 210.0 252.0Q210 202 236.0 182.0Q262 162 327 162Z" transform="translate(1063.7,275) scale(0.22,-0.22)" fill="#1F2937"/>
  <path d="M141 -170H50V0H196Q219 0 231 6L-10 504H204L291 306L327 190H340L373 308L448 504H658L419 -20Q380 -107 317.5 -138.5Q255 -170 141 -170Z" transform="translate(1202.88,275) scale(0.22,-0.22)" fill="#1F2937"/>
  <path d="M30 214V220H224V214Q224 183 252.0 172.0Q280 161 368 161Q447 161 471.0 177.0Q495 193 495 236Q495 281 471.0 297.0Q447 313 368 313Q298 313 265.5 304.5Q233 296 224 271H33L73 670H655V501H240L222 364H232Q246 401 300.5 430.5Q355 460 449 460Q695 460 695 238Q695 121 614.5 55.5Q534 -10 365.0 -10.0Q196 -10 113.0 43.5Q30 97 30 214Z" transform="translate(1337.44,275) scale(0.22,-0.22)" fill="#1F2937"/>
  <path d="M367 680Q533 680 623.0 586.5Q713 493 713.0 335.0Q713 177 623.5 83.5Q534 -10 367.0 -10.0Q200 -10 110.0 83.5Q20 177 20.0 335.0Q20 493 110.0 586.5Q200 680 367 680ZM252.0 207.0Q282 173 367.0 173.0Q452 173 481.5 207.0Q511 241 511.0 335.0Q511 429 481.5 463.0Q452 497 367.0 497.0Q282 497 252.0 463.0Q222 429 222.0 335.0Q222 241 252.0 207.0Z" transform="translate(1488.94,275) scale(0.22,-0.22)" fill="#1F2937"/>
  <path d="M348 -10Q191 -10 103.0 38.0Q15 86 15 185Q15 318 170 349V362Q37 387 37 503Q37 587 116.5 633.5Q196 680 347 680Q500 680 579.5 633.5Q659 587 659 503Q659 387 524 362V349Q596 336 637.5 298.5Q679 261 679 185Q679 86 591.0 38.0Q503 -10 348 -10ZM347 407Q422 407 447.0 417.5Q472 428 472 453Q472 481 447.5 490.5Q423 500 347 500Q273 500 249.0 490.5Q225 481 225 453Q225 428 250.0 417.5Q275 407 347 407ZM488 226Q488 258 460.5 269.0Q433 280 347.0 280.0Q261 280 233.5 269.0Q206 258 206 226Q206 195 235.0 182.5Q264 170 347.0 170.0Q430 170 459.0 182.5Q488 195 488 226Z" transform="translate(1642.2,275) scale(0.22,-0.22)" fill="#1F2937"/>
</svg>