<svg xmlns="http://www.w3.org/2000/svg" viewBox="0 0 256 256" role="img" aria-label="Remedy508 logo">
  <title>Remedy508</title>
  <rect x="0" y="0" width="256" height="256" rx="46" ry="46" fill="#0C9488"/>
  <path d="M30 214V220H224V214Q224 183 252.0 172.0Q280 161 368 161Q447 161 471.0 177.0Q495 193 495 236Q495 281 471.0 297.0Q447 313 368 313Q298 313 265.5 304.5Q233 296 224 271H33L73 670H655V501H240L222 364H232Q246 401 300.5 430.5Q355 460 449 460Q695 460 695 238Q695 121 614.5 55.5Q534 -10 365.0 -10.0Q196 -10 113.0 43.5Q30 97 30 214Z" transform="translate(37.464,162) scale(0.086,-0.086)" fill="#FFFFFF"/>
  <path d="M367 680Q533 680 623.0 586.5Q713 493 713.0 335.0Q713 177 623.5 83.5Q534 -10 367.0 -10.0Q200 -10 110.0 83.5Q20 177 20.0 335.0Q20 493 110.0 586.5Q200 680 367 680ZM252.0 207.0Q282 173 367.0 173.0Q452 173 481.5 207.0Q511 241 511.0 335.0Q511 429 481.5 463.0Q452 497 367.0 497.0Q282 497 252.0 463.0Q222 429 222.0 335.0Q222 241 252.0 207.0Z" transform="translate(97.814,162) scale(0.086,-0.086)" fill="#FFFFFF"/>
  <path d="M348 -10Q191 -10 103.0 38.0Q15 86 15 185Q15 318 170 349V362Q37 387 37 503Q37 587 116.5 633.5Q196 680 347 680Q500 680 579.5 633.5Q659 587 659 503Q659 387 524 362V349Q596 336 637.5 298.5Q679 261 679 185Q679 86 591.0 38.0Q503 -10 348 -10ZM347 407Q422 407 447.0 417.5Q472 428 472 453Q472 481 447.5 490.5Q423 500 347 500Q273 500 249.0 490.5Q225 481 225 453Q225 428 250.0 417.5Q275 407 347 407ZM488 226Q488 258 460.5 269.0Q433 280 347.0 280.0Q261 280 233.5 269.0Q206 258 206 226Q206 195 235.0 182.5Q264 170 347.0 170.0Q430 170 459.0 182.5Q488 195 488 226Z" transform="translate(158.85199999999998,162) scale(0.086,-0.086)" fill="#FFFFFF"/>
  <circle cx="210" cy="210" r="42" fill="#10B981"/>
  <path d="M 188 212 L 204 226 L 232 196" stroke="#FFFFFF" stroke-width="10" stroke-linecap="round" stroke-linejoin="round" fill="none"/>
</svg>